HIERARCHY
ROOT Hips
{
	OFFSET 0.000000 97.167313 0.000000
	CHANNELS 6 Xposition Yposition Zposition Xrotation Yrotation Zrotation
	JOINT Spine
	{
		OFFSET 0.000000 13.784798 0.064400
		CHANNELS 3 Xrotation Yrotation Zrotation
		JOINT Spine1
		{
			OFFSET 0.000000 12.037903 0.404700
			CHANNELS 3 Xrotation Yrotation Zrotation
			JOINT Spine2
			{
				OFFSET 0.000000 17.795601 0.420200
				CHANNELS 3 Xrotation Yrotation Zrotation
				JOINT Neck
				{
					OFFSET 0.000000 39.131302 11.954600
					CHANNELS 3 Xrotation Yrotation Zrotation
					JOINT Head
					{
						OFFSET 0.000000 14.456192 15.627699
						CHANNELS 3 Xrotation Yrotation Zrotation
						JOINT HeadTop_End
						{
							OFFSET 0.000000 15.703506 7.603401
							CHANNELS 3 Xrotation Yrotation Zrotation
							End Site
							{
								OFFSET 0.000000 17.447403 0.000000
							}
						}
					}
				}
				JOINT LeftShoulder
				{
					OFFSET 17.399500 24.608795 1.168800
					CHANNELS 3 Xrotation Yrotation Zrotation
					JOINT LeftArm
					{
						OFFSET 18.980635 5.765305 1.818600
						CHANNELS 3 Xrotation Yrotation Zrotation
						JOINT LeftForeArm
						{
							OFFSET 49.290169 0.000000 0.000000
							CHANNELS 3 Xrotation Yrotation Zrotation
							JOINT LeftHand
							{
								OFFSET 31.562012 0.000000 0.000000
								CHANNELS 3 Xrotation Yrotation Zrotation
								JOINT LeftHandThumb1
								{
									OFFSET 6.133995 -4.388519 7.076070
									CHANNELS 3 Xrotation Yrotation Zrotation
									JOINT LeftHandThumb2
									{
										OFFSET 6.037666 -3.485840 3.485847
										CHANNELS 3 Xrotation Yrotation Zrotation
										JOINT LeftHandThumb3
										{
											OFFSET 6.496506 -3.750763 3.750761
											CHANNELS 3 Xrotation Yrotation Zrotation
											JOINT LeftHandThumb4
											{
												OFFSET 5.616882 -3.242905 3.242910
												CHANNELS 3 Xrotation Yrotation Zrotation
												End Site
												{
													OFFSET -1.254608 7.132141 0.375429
												}
											}
										}
									}
								}
								JOINT LeftHandPinky1
								{
									OFFSET 18.920792 -0.453171 -11.426712
									CHANNELS 3 Xrotation Yrotation Zrotation
									JOINT LeftHandPinky2
									{
										OFFSET 4.919586 0.000000 0.000000
										CHANNELS 3 Xrotation Yrotation Zrotation
										JOINT LeftHandPinky3
										{
											OFFSET 5.233047 0.000000 0.000000
											CHANNELS 3 Xrotation Yrotation Zrotation
											JOINT LeftHandPinky4
											{
												OFFSET 5.571716 0.000000 0.000000
												CHANNELS 3 Xrotation Yrotation Zrotation
												End Site
												{
													OFFSET -3.459808 4.342407 -0.466164
												}
											}
										}
									}
								}
								JOINT LeftHandRing1
								{
									OFFSET 22.726120 -0.094986 -6.500475
									CHANNELS 3 Xrotation Yrotation Zrotation
									JOINT LeftHandRing2
									{
										OFFSET 6.408615 0.000000 0.000000
										CHANNELS 3 Xrotation Yrotation Zrotation
										JOINT LeftHandRing3
										{
											OFFSET 6.150223 0.000000 0.000000
											CHANNELS 3 Xrotation Yrotation Zrotation
											JOINT LeftHandRing4
											{
												OFFSET 6.145386 0.000000 0.000000
												CHANNELS 3 Xrotation Yrotation Zrotation
												End Site
												{
													OFFSET -3.671402 4.923981 -0.202372
												}
											}
										}
									}
								}
								JOINT LeftHandMiddle1
								{
									OFFSET 23.373947 0.000000 0.000001
									CHANNELS 3 Xrotation Yrotation Zrotation
									JOINT LeftHandMiddle2
									{
										OFFSET 6.996567 0.000000 0.000000
										CHANNELS 3 Xrotation Yrotation Zrotation
										JOINT LeftHandMiddle3
										{
											OFFSET 7.015945 0.000000 0.000000
											CHANNELS 3 Xrotation Yrotation Zrotation
											JOINT LeftHandMiddle4
											{
												OFFSET 7.721573 0.000000 0.000000
												CHANNELS 3 Xrotation Yrotation Zrotation
												End Site
												{
													OFFSET -4.651108 6.158463 0.251582
												}
											}
										}
									}
								}
								JOINT LeftHandIndex1
								{
									OFFSET 21.310577 -0.490082 6.209344
									CHANNELS 3 Xrotation Yrotation Zrotation
									JOINT LeftHandIndex2
									{
										OFFSET 7.536453 0.000000 0.000000
										CHANNELS 3 Xrotation Yrotation Zrotation
										JOINT LeftHandIndex3
										{
											OFFSET 7.512344 0.000000 0.000000
											CHANNELS 3 Xrotation Yrotation Zrotation
											JOINT LeftHandIndex4
											{
												OFFSET 10.212402 0.000000 0.000001
												CHANNELS 3 Xrotation Yrotation Zrotation
												End Site
												{
													OFFSET -5.180801 8.690506 1.388433
												}
											}
										}
									}
								}
							}
						}
					}
				}
				JOINT RightShoulder
				{
					OFFSET -17.399500 24.608795 1.168800
					CHANNELS 3 Xrotation Yrotation Zrotation
					JOINT RightArm
					{
						OFFSET -18.980635 5.765305 1.818600
						CHANNELS 3 Xrotation Yrotation Zrotation
						JOINT RightForeArm
						{
							OFFSET -49.290169 0.000000 0.000000
							CHANNELS 3 Xrotation Yrotation Zrotation
							JOINT RightHand
							{
								OFFSET -31.562012 0.000000 0.000000
								CHANNELS 3 Xrotation Yrotation Zrotation
								JOINT RightHandThumb1
								{
									OFFSET -6.133995 -4.388519 7.076070
									CHANNELS 3 Xrotation Yrotation Zrotation
									JOINT RightHandThumb2
									{
										OFFSET -6.037666 -3.485840 3.485847
										CHANNELS 3 Xrotation Yrotation Zrotation
										JOINT RightHandThumb3
										{
											OFFSET -6.496506 -3.750763 3.750761
											CHANNELS 3 Xrotation Yrotation Zrotation
											JOINT RightHandThumb4
											{
												OFFSET -5.616882 -3.242905 3.242910
												CHANNELS 3 Xrotation Yrotation Zrotation
												End Site
												{
													OFFSET 1.254608 7.132141 0.375429
												}
											}
										}
									}
								}
								JOINT RightHandIndex1
								{
									OFFSET -21.310577 -0.490082 6.209344
									CHANNELS 3 Xrotation Yrotation Zrotation
									JOINT RightHandIndex2
									{
										OFFSET -7.536453 0.000000 0.000000
										CHANNELS 3 Xrotation Yrotation Zrotation
										JOINT RightHandIndex3
										{
											OFFSET -7.512344 0.000000 0.000000
											CHANNELS 3 Xrotation Yrotation Zrotation
											JOINT RightHandIndex4
											{
												OFFSET -10.212402 0.000000 0.000001
												CHANNELS 3 Xrotation Yrotation Zrotation
												End Site
												{
													OFFSET 5.180801 8.690506 1.388433
												}
											}
										}
									}
								}
								JOINT RightHandMiddle1
								{
									OFFSET -23.373947 0.000000 0.000001
									CHANNELS 3 Xrotation Yrotation Zrotation
									JOINT RightHandMiddle2
									{
										OFFSET -6.996567 0.000000 0.000000
										CHANNELS 3 Xrotation Yrotation Zrotation
										JOINT RightHandMiddle3
										{
											OFFSET -7.015945 0.000000 0.000000
											CHANNELS 3 Xrotation Yrotation Zrotation
											JOINT RightHandMiddle4
											{
												OFFSET -7.721573 0.000000 0.000000
												CHANNELS 3 Xrotation Yrotation Zrotation
												End Site
												{
													OFFSET 4.651108 6.158463 0.251582
												}
											}
										}
									}
								}
								JOINT RightHandRing1
								{
									OFFSET -22.726120 -0.094986 -6.500475
									CHANNELS 3 Xrotation Yrotation Zrotation
									JOINT RightHandRing2
									{
										OFFSET -6.408615 0.000000 0.000000
										CHANNELS 3 Xrotation Yrotation Zrotation
										JOINT RightHandRing3
										{
											OFFSET -6.150223 0.000000 0.000000
											CHANNELS 3 Xrotation Yrotation Zrotation
											JOINT RightHandRing4
											{
												OFFSET -6.145386 0.000000 0.000000
												CHANNELS 3 Xrotation Yrotation Zrotation
												End Site
												{
													OFFSET 3.671402 4.923981 -0.202372
												}
											}
										}
									}
								}
								JOINT RightHandPinky1
								{
									OFFSET -18.920792 -0.453171 -11.426712
									CHANNELS 3 Xrotation Yrotation Zrotation
									JOINT RightHandPinky2
									{
										OFFSET -4.919586 0.000000 0.000000
										CHANNELS 3 Xrotation Yrotation Zrotation
										JOINT RightHandPinky3
										{
											OFFSET -5.233047 0.000000 0.000000
											CHANNELS 3 Xrotation Yrotation Zrotation
											JOINT RightHandPinky4
											{
												OFFSET -5.571716 0.000000 0.000000
												CHANNELS 3 Xrotation Yrotation Zrotation
												End Site
												{
													OFFSET 3.459808 4.342407 -0.466164
												}
											}
										}
									}
								}
							}
						}
					}
				}
			}
		}
	}
	JOINT LeftUpLeg
	{
		OFFSET 19.899099 -7.885101 -3.429500
		CHANNELS 3 Xrotation Yrotation Zrotation
		JOINT LeftLeg
		{
			OFFSET 1.745560 -36.997807 10.304700
			CHANNELS 3 Xrotation Yrotation Zrotation
			JOINT LeftFoot
			{
				OFFSET -1.745558 -29.803308 -13.615400
				CHANNELS 3 Xrotation Yrotation Zrotation
				JOINT LeftToeBase
				{
					OFFSET 1.181900 -18.539904 15.226099
					CHANNELS 3 Xrotation Yrotation Zrotation
					JOINT LeftToe_End
					{
						OFFSET -0.863701 1.402801 16.534700
						CHANNELS 3 Xrotation Yrotation Zrotation
						End Site
						{
							OFFSET 0.000000 16.616566 0.000000
						}
					}
				}
			}
		}
	}
	JOINT RightUpLeg
	{
		OFFSET -19.899099 -7.885101 -3.429500
		CHANNELS 3 Xrotation Yrotation Zrotation
		JOINT RightLeg
		{
			OFFSET -1.745560 -36.997807 10.304700
			CHANNELS 3 Xrotation Yrotation Zrotation
			JOINT RightFoot
			{
				OFFSET 1.745558 -29.803308 -13.615400
				CHANNELS 3 Xrotation Yrotation Zrotation
				JOINT RightToeBase
				{
					OFFSET -1.181900 -18.539904 15.226099
					CHANNELS 3 Xrotation Yrotation Zrotation
					JOINT RightToe_End
					{
						OFFSET 0.863701 1.402801 16.534700
						CHANNELS 3 Xrotation Yrotation Zrotation
						End Site
						{
							OFFSET 0.000000 16.616566 0.000000
						}
					}
				}
			}
		}
	}
}
MOTION
Frames: 5
Frame Time: 0.033333
1.021871 82.133896 -5.258035 -5.789002 170.065522 8.924165 -1.440292 1.053805 0.841922 -2.887540 1.191164 1.602631 -2.887538 1.191160 1.602635 2.884245 -20.364733 2.032673 6.253294 -40.732943 20.812944 -0.000003 0.000000 0.000001 0.930112 2.441659 -16.054199 11.015795 23.300869 -42.418832 36.916940 -24.727926 -13.750275 32.910406 -6.069559 -0.334347 -11.704838 -6.638693 -13.043700 1.802583 5.540925 2.039518 0.000015 0.000012 -0.000011 -0.000000 0.000003 0.000002 1.351598 24.713914 -12.646482 -0.460098 -5.319870 -15.677156 0.000004 -0.000000 -0.000006 -0.000002 0.000002 -0.000004 3.237678 16.393257 -23.703629 -0.094247 -1.518225 -11.056176 0.000001 -0.000000 0.000000 -0.000003 0.000001 0.000003 0.054076 2.637243 -15.351841 -0.075364 -0.273583 -9.773564 0.000003 -0.000006 0.000008 0.000002 -0.000000 0.000004 0.803902 -6.865189 -17.143794 0.068007 0.764266 -16.879067 0.000004 0.000004 -0.000007 -0.000001 -0.000000 -0.000001 4.670924 7.401433 19.710374 2.844433 -8.719696 35.722818 45.690889 15.863620 10.396473 37.965555 9.600799 -12.110737 -0.248141 1.445098 1.629740 0.815210 -3.345414 -1.760990 0.000015 0.000005 -0.000014 -0.000001 0.000001 0.000002 -1.284482 0.893308 12.582034 0.024938 -0.808159 20.106550 0.000008 0.000003 0.000010 -0.000001 -0.000002 0.000003 -1.417548 -0.266934 20.149903 -0.127363 0.428979 13.768438 -0.000001 0.000002 -0.000004 0.000002 0.000000 -0.000004 -5.900927 -8.437446 25.854971 -0.223406 2.158576 16.317993 0.000002 -0.000003 0.000008 -0.000001 -0.000001 -0.000003 -4.333885 -13.505834 26.055065 -0.834678 6.893338 25.541190 -0.000000 -0.000001 -0.000001 0.000001 -0.000004 0.000005 -56.957163 -14.264465 -14.237000 31.844357 23.964794 2.661584 25.422777 -3.660683 -20.785109 -3.799350 5.580717 2.422411 0.000000 0.000000 -0.000000 -28.644925 -52.931039 -22.725730 45.909257 25.893015 5.605448 -33.548035 8.734133 -20.990392 -0.926996 4.718235 -0.586280 -0.000000 -0.000001 -0.000000 
5.007588 82.015564 -5.094824 -5.802122 169.672376 8.226643 -1.406974 1.194363 0.825711 -2.827841 1.324278 1.854507 -2.827838 1.324282 1.854501 3.297855 -20.064724 3.066033 5.337409 -40.201404 20.103103 -0.000001 0.000000 -0.000001 0.904064 2.755148 -15.291672 10.865385 23.013873 -42.534641 36.781836 -24.579679 -13.506206 32.800255 -6.187279 0.206458 -11.704832 -6.638691 -13.043700 1.802586 5.540929 2.039519 0.000017 0.000013 -0.000011 -0.000001 0.000001 -0.000002 1.349081 24.705184 -12.580950 -0.461730 -5.312402 -15.385493 0.000002 -0.000003 -0.000003 0.000001 0.000003 -0.000000 3.220270 16.386430 -23.639949 -0.090098 -1.496750 -10.799157 0.000001 -0.000003 -0.000005 -0.000001 0.000003 0.000004 0.052933 2.633113 -15.403904 -0.077103 -0.283238 -9.854939 0.000002 -0.000008 0.000004 0.000001 0.000001 0.000001 0.803906 -6.865187 -17.143797 0.068006 0.764269 -16.879062 0.000006 0.000002 -0.000010 -0.000003 0.000001 -0.000001 4.583535 8.251365 20.432226 2.818339 -9.091164 34.966785 45.628406 15.657671 10.645424 37.758744 9.674489 -12.056601 -0.776165 1.380798 0.672696 0.938775 -3.612551 -1.797992 0.000013 0.000006 -0.000016 -0.000000 -0.000001 0.000001 -1.281529 0.869288 12.271746 0.032085 -0.833150 19.847343 0.000010 0.000006 0.000008 0.000001 0.000000 0.000001 -1.402010 -0.313695 19.520013 -0.122880 0.409782 13.508606 -0.000001 0.000002 -0.000007 0.000001 0.000001 -0.000001 -5.346403 -8.238395 25.139066 -0.216288 2.134468 16.058355 0.000003 -0.000004 0.000006 -0.000000 0.000001 -0.000001 -3.769352 -13.314728 24.945693 -0.825021 6.875797 25.280171 -0.000003 -0.000001 0.000006 -0.000000 -0.000002 0.000002 -57.051153 -12.252502 -17.141837 29.510847 26.820582 1.340321 26.688841 -4.320109 -22.908151 -4.074553 5.094354 3.764472 -0.000001 -0.000000 -0.000001 -19.405322 -54.068191 -13.357755 42.555866 24.882919 6.680503 -34.285781 9.993503 -23.214932 -0.883520 4.709284 -0.444233 -0.000000 0.000001 -0.000000 
8.993234 81.718849 -4.928775 -5.852801 169.175316 7.561778 -1.380406 1.331580 0.814936 -2.780215 1.444328 2.009564 -2.780217 1.444332 2.009566 3.769877 -19.860646 4.198402 4.568820 -39.798884 19.469584 -0.000000 0.000000 -0.000000 0.867622 3.019251 -14.490120 10.782506 22.836604 -42.591219 36.631589 -24.564092 -13.277043 32.585497 -6.397099 0.707379 -11.704832 -6.638691 -13.043698 1.802590 5.540927 2.039519 0.000016 0.000014 -0.000010 -0.000000 -0.000000 -0.000001 1.337323 24.587351 -12.815164 -0.461999 -5.311261 -15.341286 0.000003 -0.000002 0.000001 -0.000000 0.000001 -0.000000 3.178542 16.240404 -23.899645 -0.092187 -1.508653 -10.983261 0.000002 -0.000003 -0.000002 -0.000003 -0.000000 0.000002 0.045209 2.605424 -15.753942 -0.087928 -0.342294 -10.403365 0.000006 -0.000006 0.000006 -0.000000 0.000002 0.000001 0.803906 -6.865180 -17.143794 0.068008 0.764272 -16.879066 0.000006 0.000003 -0.000010 -0.000000 0.000003 -0.000001 4.493235 9.068123 21.179831 2.722545 -9.259168 34.278428 45.532486 15.545379 10.844972 37.460207 9.601507 -11.854909 -1.337884 1.322180 -0.344065 1.069688 -3.896322 -1.836672 0.000015 0.000004 -0.000018 -0.000001 -0.000001 0.000002 -1.278348 0.843796 11.942273 0.039750 -0.859711 19.572093 0.000009 0.000004 0.000013 -0.000001 -0.000003 -0.000002 -1.385983 -0.363516 18.851209 -0.117448 0.385710 13.232938 0.000000 0.000000 -0.000006 0.000000 -0.000000 -0.000006 -4.752618 -8.042881 24.378234 -0.209559 2.111681 15.782409 0.000002 -0.000001 0.000007 0.000001 -0.000001 -0.000003 -3.162445 -13.136282 23.768327 -0.814917 6.857060 25.003045 -0.000002 -0.000004 0.000002 -0.000001 0.000000 0.000000 -55.371466 -10.188568 -18.777783 27.694412 31.709003 -0.759279 30.152328 -5.399912 -24.716001 -8.820932 3.493748 10.296765 0.000000 -0.000000 -0.000002 -9.814616 -53.773663 -3.357062 39.050264 23.324582 7.212226 -34.943671 11.136162 -24.920258 -0.779211 4.562340 -0.724646 -0.000000 0.000001 -0.000000 
12.945311 81.313896 -4.749395 -5.958062 168.578276 6.998446 -1.356572 1.483189 0.800485 -2.737054 1.627125 2.065429 -2.737054 1.627124 2.065429 4.049056 -19.774963 5.194607 4.078930 -39.536871 19.008794 -0.000000 0.000000 -0.000000 0.824190 3.137555 -13.738436 10.599894 22.640482 -42.579713 36.490777 -24.416673 -13.057842 32.452110 -6.653914 0.864812 -11.704835 -6.638695 -13.043704 1.802583 5.540924 2.039516 0.000016 0.000017 -0.000010 -0.000000 -0.000000 0.000000 1.317836 24.358963 -13.354263 -0.460765 -5.316598 -15.550433 0.000001 -0.000000 -0.000006 0.000002 0.000002 -0.000007 3.101090 15.958174 -24.485516 -0.099100 -1.546705 -11.617508 0.000001 0.000002 -0.000001 -0.000003 -0.000001 -0.000000 0.029571 2.550573 -16.405577 -0.109236 -0.452042 -11.424789 0.000008 -0.000004 0.000006 -0.000001 0.000000 0.000001 0.803904 -6.865184 -17.143792 0.068010 0.764269 -16.879062 0.000004 0.000001 -0.000005 -0.000001 0.000001 0.000001 4.416285 9.709324 21.800048 2.579984 -9.194622 33.824435 45.338748 15.540799 10.951810 37.037114 9.374891 -11.556982 -1.929200 1.271326 -1.413085 1.205263 -4.195611 -1.875835 0.000014 0.000006 -0.000016 0.000001 0.000000 0.000002 -1.274916 0.817018 11.596060 0.047841 -0.887576 19.282855 0.000009 0.000008 0.000011 0.000000 0.000000 0.000001 -1.369612 -0.416052 18.148409 -0.111823 0.360406 12.943255 0.000001 0.000002 -0.000002 -0.000000 0.000001 -0.000008 -4.123357 -7.855165 23.578201 -0.202631 2.087630 15.492431 0.000002 -0.000001 0.000007 -0.000002 -0.000001 -0.000003 -2.517075 -12.976158 22.531891 -0.804554 6.837316 24.711872 -0.000001 0.000002 -0.000001 0.000002 0.000000 0.000001 -52.266353 -8.621412 -19.711427 26.603877 37.545263 -2.879239 34.416616 -6.187576 -25.578319 -16.703082 -0.635216 20.952604 0.000000 0.000000 -0.000003 -0.937892 -52.228028 6.139168 35.340833 21.477557 7.435593 -35.367461 12.051677 -26.270378 -1.230183 4.785441 -1.375502 0.000000 0.000001 -0.000000 
16.813635 80.933495 -4.506377 -6.146904 167.833840 6.697617 -1.333715 1.670629 0.722954 -2.697814 1.963623 2.014630 -2.697815 1.963620 2.014632 3.920466 -19.774943 5.779389 3.982221 -39.379538 18.813630 -0.000000 -0.000002 -0.000002 0.790218 3.151347 -13.203236 10.173557 22.305825 -42.376406 36.464345 -24.139265 -12.841196 32.498843 -6.804536 0.558621 -11.704836 -6.638689 -13.043697 1.802583 5.540929 2.039520 0.000017 0.000012 -0.000013 0.000002 0.000001 0.000001 1.285605 24.038699 -14.152029 -0.463354 -5.325405 -15.979229 0.000003 -0.000000 -0.000000 0.000001 0.000000 -0.000002 2.985854 15.563797 -25.349108 -0.111384 -1.607612 -12.637831 0.000004 -0.000001 -0.000007 0.000002 -0.000000 0.000007 0.003969 2.461970 -17.311888 -0.141333 -0.604409 -12.847604 0.000004 -0.000007 0.000006 -0.000001 -0.000000 0.000004 0.803904 -6.865184 -17.143790 0.068013 0.764272 -16.879064 0.000004 -0.000001 -0.000010 -0.000002 0.000003 0.000001 4.357985 10.128905 22.157405 2.435693 -8.927527 33.720285 45.012012 15.592898 10.964227 36.490887 9.163483 -11.313057 -2.538931 1.230519 -2.514292 1.342903 -4.504847 -1.914704 0.000015 0.000005 -0.000016 -0.000001 0.000000 0.000001 -1.271300 0.789452 11.239594 0.056215 -0.916263 18.985052 0.000009 0.000003 0.000013 -0.000000 -0.000001 -0.000001 -1.353290 -0.470314 17.424796 -0.106152 0.334349 12.644989 -0.000001 0.000000 -0.000007 -0.000000 0.000000 -0.000008 -3.470259 -7.680906 22.754094 -0.195680 2.062850 15.193862 -0.000000 -0.000000 0.000007 -0.000001 0.000000 -0.000002 -1.845410 -12.840837 21.259915 -0.794120 6.816824 24.412073 -0.000000 -0.000003 -0.000000 0.000000 -0.000001 -0.000001 -49.666612 -7.318950 -20.821477 26.586183 41.041739 -4.067925 35.302581 -5.706245 -23.638942 -20.654309 -3.781886 30.762397 0.000001 0.000000 0.000000 4.827471 -50.349696 12.543914 33.137981 20.508427 7.923466 -35.139756 12.159330 -26.422983 -3.055689 6.090755 -1.931878 -0.000000 0.000002 0.000000 
